<mxfile host="app.diagrams.net" modified="2023-02-22T08:33:12.854Z" agent="5.0 (Windows NT 10.0; Win64; x64) AppleWebKit/537.36 (KHTML, like Gecko) Chrome/93.0.4577.63 Safari/537.36 Edg/93.0.961.47" etag="ZbR_Trf3d6JBXc1y9jeV" version="20.8.22" type="github">
  <diagram name="第 1 页" id="aRZr-AFjaki0C7ekTxrI">
    <mxGraphModel dx="1500" dy="829" grid="1" gridSize="10" guides="1" tooltips="1" connect="1" arrows="1" fold="1" page="1" pageScale="1" pageWidth="827" pageHeight="1169" math="0" shadow="0">
      <root>
        <mxCell id="0" />
        <mxCell id="1" parent="0" />
        <mxCell id="8eqENRAv55_VcvqNLqFp-1" value="模型" style="swimlane;fontSize=16;startSize=23;" vertex="1" parent="1">
          <mxGeometry x="390" y="80" width="200" height="200" as="geometry" />
        </mxCell>
        <mxCell id="8eqENRAv55_VcvqNLqFp-4" value="&lt;font style=&quot;font-size: 14px;&quot;&gt;存储模型数据&lt;br&gt;通知视图改变&lt;br&gt;响应控制器数据操作&lt;/font&gt;" style="text;html=1;align=left;verticalAlign=middle;resizable=0;points=[];autosize=1;strokeColor=none;fillColor=none;" vertex="1" parent="8eqENRAv55_VcvqNLqFp-1">
          <mxGeometry x="30" y="80" width="150" height="60" as="geometry" />
        </mxCell>
        <mxCell id="8eqENRAv55_VcvqNLqFp-2" value="视图" style="swimlane;startSize=23;fontSize=16;" vertex="1" parent="1">
          <mxGeometry x="80" y="400" width="200" height="200" as="geometry" />
        </mxCell>
        <mxCell id="8eqENRAv55_VcvqNLqFp-13" value="&lt;div style=&quot;text-align: left; font-size: 14px;&quot;&gt;&lt;span style=&quot;background-color: initial;&quot;&gt;&lt;font style=&quot;font-size: 14px;&quot;&gt;显示模型&lt;/font&gt;&lt;/span&gt;&lt;/div&gt;&lt;div style=&quot;text-align: left; font-size: 14px;&quot;&gt;&lt;span style=&quot;background-color: initial;&quot;&gt;&lt;font style=&quot;font-size: 14px;&quot;&gt;响应模型改变&lt;/font&gt;&lt;/span&gt;&lt;/div&gt;&lt;div style=&quot;text-align: left; font-size: 14px;&quot;&gt;&lt;span style=&quot;background-color: initial;&quot;&gt;&lt;font style=&quot;font-size: 14px;&quot;&gt;模型更新请求&lt;/font&gt;&lt;/span&gt;&lt;/div&gt;&lt;div style=&quot;text-align: left; font-size: 14px;&quot;&gt;&lt;span style=&quot;background-color: initial;&quot;&gt;&lt;font style=&quot;font-size: 14px;&quot;&gt;发送用户命令&lt;/font&gt;&lt;/span&gt;&lt;/div&gt;" style="text;html=1;align=center;verticalAlign=middle;resizable=0;points=[];autosize=1;strokeColor=none;fillColor=none;" vertex="1" parent="8eqENRAv55_VcvqNLqFp-2">
          <mxGeometry x="35" y="65" width="110" height="80" as="geometry" />
        </mxCell>
        <mxCell id="8eqENRAv55_VcvqNLqFp-3" value="控制器" style="swimlane;fontSize=16;" vertex="1" parent="1">
          <mxGeometry x="700" y="400" width="200" height="200" as="geometry" />
        </mxCell>
        <mxCell id="8eqENRAv55_VcvqNLqFp-15" value="&lt;font style=&quot;font-size: 14px;&quot;&gt;处理程序业务逻辑&lt;br&gt;响应视图请求&lt;br&gt;更新模型数据&lt;/font&gt;" style="text;html=1;strokeColor=none;fillColor=none;align=left;verticalAlign=middle;whiteSpace=wrap;rounded=0;" vertex="1" parent="8eqENRAv55_VcvqNLqFp-3">
          <mxGeometry x="45" y="70" width="115" height="60" as="geometry" />
        </mxCell>
        <mxCell id="8eqENRAv55_VcvqNLqFp-6" value="" style="endArrow=classic;html=1;rounded=0;dashed=1;entryX=0.75;entryY=0;entryDx=0;entryDy=0;edgeStyle=orthogonalEdgeStyle;" edge="1" parent="1" target="8eqENRAv55_VcvqNLqFp-2">
          <mxGeometry width="50" height="50" relative="1" as="geometry">
            <mxPoint x="390" y="200" as="sourcePoint" />
            <mxPoint x="360" y="360" as="targetPoint" />
          </mxGeometry>
        </mxCell>
        <mxCell id="8eqENRAv55_VcvqNLqFp-8" value="" style="endArrow=classic;html=1;rounded=0;exitX=0.5;exitY=0;exitDx=0;exitDy=0;edgeStyle=orthogonalEdgeStyle;" edge="1" parent="1" source="8eqENRAv55_VcvqNLqFp-2">
          <mxGeometry width="50" height="50" relative="1" as="geometry">
            <mxPoint x="390" y="390" as="sourcePoint" />
            <mxPoint x="390" y="170" as="targetPoint" />
            <Array as="points">
              <mxPoint x="180" y="170" />
            </Array>
          </mxGeometry>
        </mxCell>
        <mxCell id="8eqENRAv55_VcvqNLqFp-9" value="模型改变" style="text;html=1;strokeColor=none;fillColor=none;align=center;verticalAlign=middle;whiteSpace=wrap;rounded=0;" vertex="1" parent="1">
          <mxGeometry x="290" y="170" width="70" height="40" as="geometry" />
        </mxCell>
        <mxCell id="8eqENRAv55_VcvqNLqFp-12" value="状态查询" style="text;html=1;strokeColor=none;fillColor=none;align=center;verticalAlign=middle;whiteSpace=wrap;rounded=0;" vertex="1" parent="1">
          <mxGeometry x="220" y="140" width="60" height="30" as="geometry" />
        </mxCell>
        <mxCell id="8eqENRAv55_VcvqNLqFp-14" value="" style="endArrow=classic;html=1;rounded=0;" edge="1" parent="1">
          <mxGeometry width="50" height="50" relative="1" as="geometry">
            <mxPoint x="700" y="480" as="sourcePoint" />
            <mxPoint x="280" y="480" as="targetPoint" />
          </mxGeometry>
        </mxCell>
        <mxCell id="8eqENRAv55_VcvqNLqFp-16" value="" style="endArrow=classic;html=1;rounded=0;exitX=0.5;exitY=0;exitDx=0;exitDy=0;edgeStyle=orthogonalEdgeStyle;" edge="1" parent="1" source="8eqENRAv55_VcvqNLqFp-3">
          <mxGeometry width="50" height="50" relative="1" as="geometry">
            <mxPoint x="690" y="380" as="sourcePoint" />
            <mxPoint x="590" y="160" as="targetPoint" />
            <Array as="points">
              <mxPoint x="800" y="160" />
            </Array>
          </mxGeometry>
        </mxCell>
        <mxCell id="8eqENRAv55_VcvqNLqFp-17" value="更改模型" style="text;html=1;strokeColor=none;fillColor=none;align=center;verticalAlign=middle;whiteSpace=wrap;rounded=0;" vertex="1" parent="1">
          <mxGeometry x="680" y="130" width="60" height="30" as="geometry" />
        </mxCell>
        <mxCell id="8eqENRAv55_VcvqNLqFp-18" value="视图选择" style="text;html=1;strokeColor=none;fillColor=none;align=center;verticalAlign=middle;whiteSpace=wrap;rounded=0;" vertex="1" parent="1">
          <mxGeometry x="440" y="450" width="60" height="30" as="geometry" />
        </mxCell>
        <mxCell id="8eqENRAv55_VcvqNLqFp-19" value="" style="endArrow=classic;html=1;rounded=0;dashed=1;edgeStyle=orthogonalEdgeStyle;" edge="1" parent="1">
          <mxGeometry width="50" height="50" relative="1" as="geometry">
            <mxPoint x="280" y="540" as="sourcePoint" />
            <mxPoint x="700" y="540" as="targetPoint" />
          </mxGeometry>
        </mxCell>
        <mxCell id="8eqENRAv55_VcvqNLqFp-20" value="用户命令输入" style="text;html=1;strokeColor=none;fillColor=none;align=center;verticalAlign=middle;whiteSpace=wrap;rounded=0;" vertex="1" parent="1">
          <mxGeometry x="430" y="520" width="100" height="10" as="geometry" />
        </mxCell>
        <mxCell id="8eqENRAv55_VcvqNLqFp-21" value="" style="endArrow=classic;html=1;rounded=0;" edge="1" parent="1">
          <mxGeometry width="50" height="50" relative="1" as="geometry">
            <mxPoint x="515" y="680" as="sourcePoint" />
            <mxPoint x="625" y="680" as="targetPoint" />
          </mxGeometry>
        </mxCell>
        <mxCell id="8eqENRAv55_VcvqNLqFp-23" value="" style="endArrow=classic;html=1;rounded=0;dashed=1;edgeStyle=orthogonalEdgeStyle;" edge="1" parent="1">
          <mxGeometry width="50" height="50" relative="1" as="geometry">
            <mxPoint x="320" y="680" as="sourcePoint" />
            <mxPoint x="430" y="680" as="targetPoint" />
          </mxGeometry>
        </mxCell>
        <mxCell id="8eqENRAv55_VcvqNLqFp-24" value="程序事件" style="text;html=1;strokeColor=none;fillColor=none;align=center;verticalAlign=middle;whiteSpace=wrap;rounded=0;" vertex="1" parent="1">
          <mxGeometry x="340" y="620" width="60" height="30" as="geometry" />
        </mxCell>
        <mxCell id="8eqENRAv55_VcvqNLqFp-25" value="方法调用" style="text;html=1;strokeColor=none;fillColor=none;align=center;verticalAlign=middle;whiteSpace=wrap;rounded=0;" vertex="1" parent="1">
          <mxGeometry x="540" y="620" width="60" height="30" as="geometry" />
        </mxCell>
      </root>
    </mxGraphModel>
  </diagram>
</mxfile>
